<svg xmlns="http://www.w3.org/2000/svg" xmlns:xlink="http://www.w3.org/1999/xlink" width="500" zoomAndPan="magnify" viewBox="0 0 375 374.999991" height="500" preserveAspectRatio="xMidYMid meet" version="1.0"><defs><clipPath id="ce4a605e18"><path d="M 37.5 37.5 L 337.5 37.5 L 337.5 337.5 L 37.5 337.5 Z M 37.5 37.5 " clip-rule="nonzero"/></clipPath></defs><g clip-path="url(#ce4a605e18)"><path fill="#8636e7" d="M 187.5 37.5 C 104.792969 37.5 37.5 104.792969 37.5 187.5 C 37.5 270.207031 104.792969 337.5 187.5 337.5 C 270.207031 337.5 337.5 270.207031 337.5 187.5 C 337.5 104.792969 270.207031 37.5 187.5 37.5 Z M 103.257812 288.007812 C 104.652344 242.699219 141.851562 206.25 187.5 206.25 C 233.148438 206.25 270.347656 242.699219 271.742188 288.007812 C 248.925781 307.164062 219.554688 318.75 187.5 318.75 C 155.445312 318.75 126.074219 307.164062 103.257812 288.007812 Z M 140.625 140.625 C 140.625 114.777344 161.652344 93.75 187.5 93.75 C 213.347656 93.75 234.375 114.777344 234.375 140.625 C 234.375 166.472656 213.347656 187.5 187.5 187.5 C 161.652344 187.5 140.625 166.472656 140.625 140.625 Z M 288.695312 270.984375 C 281.90625 235.941406 257.324219 207.253906 224.765625 194.570312 C 241.875 182.71875 253.125 162.964844 253.125 140.625 C 253.125 104.445312 223.679688 75 187.5 75 C 151.320312 75 121.875 104.445312 121.875 140.625 C 121.875 162.964844 133.125 182.71875 150.234375 194.578125 C 117.675781 207.261719 93.09375 235.949219 86.296875 270.992188 C 67.539062 248.289062 56.25 219.1875 56.25 187.5 C 56.25 115.125 115.125 56.25 187.5 56.25 C 259.875 56.25 318.75 115.125 318.75 187.5 C 318.75 219.1875 307.460938 248.289062 288.695312 270.984375 Z M 288.695312 270.984375 " fill-opacity="1" fill-rule="nonzero"/></g></svg>